#include <cstdint>
#define compass_width 66
#define compass_height 80
static uint8_t compass_bits[] = {
    0x00,0x00,0x00,0xc0,0x3f,0x00,0x00,0x00,0x00,0x00,0x00,0x00,0xf0,0xff,0x01,
    0x00,0x00,0x00,0x00,0x00,0x00,0xfc,0xff,0x03,0x00,0x00,0x00,0x00,0x00,0x00,
    0xfe,0xff,0x07,0x00,0x00,0x00,0x00,0x00,0x00,0xff,0xff,0x0f,0x00,0x00,0x00,
    0x00,0x00,0x00,0xff,0xff,0x0f,0x00,0x00,0x00,0x00,0x00,0x80,0xff,0xff,0x1f,
    0x00,0x00,0x00,0x00,0x00,0x80,0xff,0xff,0x1f,0x00,0x00,0x00,0x00,0x00,0x80,
    0xff,0xff,0x3f,0x00,0x00,0x00,0x00,0x00,0xc0,0xff,0xff,0x3f,0x00,0x00,0x00,
    0x00,0x00,0xc0,0xff,0xff,0x3f,0x00,0x00,0x00,0x00,0x00,0xc0,0xff,0xc7,0x3f,
    0x00,0x00,0x00,0x00,0x00,0xc0,0xf1,0x83,0x3f,0x00,0x00,0x00,0x00,0x00,0xc0,
    0xe0,0x01,0x3f,0x00,0x00,0x00,0x00,0x00,0xc0,0xe0,0x19,0x3f,0x00,0x00,0x00,
    0x00,0x00,0xc0,0xec,0x38,0x3f,0x00,0x00,0x00,0x00,0x00,0xc0,0xee,0x3c,0x3f,
    0x00,0x00,0x00,0x00,0x00,0xc0,0xfe,0x3f,0x3f,0x00,0x00,0x00,0x00,0x00,0xc0,
    0x0c,0x3c,0x3f,0x00,0x00,0x00,0x00,0x00,0xc0,0x05,0xb0,0x3f,0x00,0x00,0x00,
    0x00,0x00,0xc0,0x03,0x80,0x3f,0x00,0x00,0x00,0x00,0x00,0xc0,0x00,0x00,0x3f,
    0x00,0x00,0x00,0x00,0x00,0xc0,0x00,0x20,0x7f,0x00,0x00,0x00,0x00,0x00,0xc0,
    0x02,0x10,0x7f,0x00,0x00,0x00,0x00,0x00,0xc0,0x05,0x84,0x7f,0x00,0x00,0x00,
    0x00,0x00,0xc0,0xb3,0x41,0x7e,0x00,0x00,0x00,0x00,0x00,0xe0,0x05,0x10,0xfe,
    0x00,0x00,0x00,0x00,0x00,0xe0,0x09,0x04,0xfe,0x00,0x00,0x00,0x00,0x00,0xe0,
    0xe0,0x01,0xfc,0x01,0x00,0x00,0x00,0x00,0xf0,0x00,0x00,0xfc,0x03,0x00,0x00,
    0x00,0x00,0xf8,0x00,0x00,0xfc,0x07,0x00,0x00,0x00,0x00,0xf8,0x00,0x00,0xf8,
    0x07,0x00,0x00,0x00,0x00,0x7c,0x00,0x00,0xf8,0x0f,0x00,0x00,0x00,0x00,0x7e,
    0x00,0x00,0xf8,0x1f,0x00,0x00,0x00,0x00,0x7f,0x00,0x00,0xf0,0x3f,0x00,0x00,
    0x00,0x00,0x3f,0x00,0x00,0x70,0x7f,0x00,0x00,0x00,0x80,0x3f,0x00,0x00,0xe0,
    0x7e,0x00,0x00,0x00,0xc0,0x1f,0x00,0x00,0xe0,0xfd,0x00,0x00,0x00,0xc0,0x1d,
    0x00,0x00,0xc0,0xff,0x00,0x00,0x00,0xe0,0x0f,0x00,0x00,0xc0,0xfb,0x01,0x00,
    0x00,0xe0,0x0e,0x00,0x00,0x80,0xff,0x03,0x00,0x00,0xf0,0x07,0x00,0x00,0x80,
    0xf7,0x03,0x00,0x00,0x78,0x07,0x00,0x00,0x00,0xf7,0x03,0x00,0x00,0xf8,0x07,
    0x00,0x00,0x00,0xef,0x07,0x00,0x00,0xb8,0x03,0x00,0x00,0x00,0xef,0x07,0x00,
    0x00,0xbc,0x03,0x00,0x00,0x00,0xee,0x0f,0x00,0x00,0xbc,0x03,0x00,0x00,0x00,
    0xee,0x0f,0x00,0x00,0xbc,0x01,0x00,0x00,0x00,0xee,0x0f,0x00,0x00,0xbe,0x01,
    0x00,0x00,0x00,0xec,0x0f,0x00,0x00,0xbe,0x01,0x00,0x00,0x00,0xe0,0x0f,0x00,
    0x00,0xbe,0x01,0x00,0x00,0x00,0xc0,0x0f,0x00,0x00,0x3e,0x01,0x00,0x00,0x00,
    0x3f,0x0f,0x00,0x00,0x7e,0x01,0x00,0x00,0x00,0xff,0x0e,0x00,0x00,0x7e,0x00,
    0x00,0x00,0x80,0xff,0x0d,0x00,0x00,0xfe,0x00,0x00,0x00,0x40,0xff,0x0d,0x00,
    0x00,0xc3,0x01,0x00,0x00,0x20,0xff,0x0f,0x00,0x80,0x81,0x07,0x00,0x00,0x30,
    0xff,0x1c,0x00,0x80,0x00,0x0f,0x00,0x00,0x10,0x7f,0x30,0x00,0x60,0x00,0x3f,
    0x00,0x00,0x10,0x3e,0x20,0x00,0x38,0x00,0x7e,0x00,0x00,0x10,0x00,0x20,0x00,
    0x06,0x00,0xfe,0x00,0x00,0x10,0x00,0x20,0x00,0x02,0x00,0xfc,0x00,0x00,0x10,
    0x00,0x40,0x00,0x03,0x00,0xfc,0x01,0x00,0x10,0x00,0x40,0x00,0x03,0x00,0xf8,
    0x01,0x00,0x10,0x00,0xc0,0x00,0x02,0x00,0xf0,0x01,0x00,0x18,0x00,0x80,0x01,
    0x02,0x00,0xf0,0x01,0x00,0x08,0x00,0x00,0x01,0x02,0x00,0x60,0x00,0x00,0x08,
    0x00,0x00,0x03,0x02,0x00,0x40,0x00,0x00,0x08,0x00,0x00,0x02,0x02,0x00,0x80,
    0x00,0x00,0x0c,0x00,0x00,0x03,0x03,0x00,0x00,0x01,0x00,0x06,0x00,0x80,0x01,
    0x01,0x00,0x00,0x07,0x80,0x07,0x00,0xe0,0x00,0x01,0x00,0x00,0x3e,0xf8,0x07,
    0x00,0x38,0x00,0x01,0x00,0x00,0xfe,0xff,0x07,0x00,0x0c,0x00,0x02,0x00,0x00,
    0xfe,0xff,0x07,0x00,0x03,0x00,0x3e,0x00,0x00,0xfe,0xff,0x07,0x80,0x01,0x00,
    0xe0,0x0f,0x00,0x07,0x00,0x04,0xc0,0x00,0x00,0x00,0x38,0x00,0x01,0x00,0x04,
    0x60,0x00,0x00,0x00,0xe0,0xc1,0x00,0x00,0x08,0x30,0x00,0x00,0x00,0x00,0x7f,
    0x00,0x00,0x30,0x0c,0x00,0x00,0x00,0x00,0x00,0x00,0x00,0xe0,0x03,0x00,0x00 };
   